<svg id="visual" viewBox="0 0 900 600" width="900" height="600" xmlns="http://www.w3.org/2000/svg" xmlns:xlink="http://www.w3.org/1999/xlink" version="1.1"><rect x="0" y="0" width="900" height="600" fill="#000000"></rect><path d="M0 220L21.5 211.7C43 203.3 86 186.7 128.8 190.2C171.7 193.7 214.3 217.3 257.2 228C300 238.7 343 236.3 385.8 226.5C428.7 216.7 471.3 199.3 514.2 197.7C557 196 600 210 642.8 220.5C685.7 231 728.3 238 771.2 230C814 222 857 199 878.5 187.5L900 176L900 0L878.5 0C857 0 814 0 771.2 0C728.3 0 685.7 0 642.8 0C600 0 557 0 514.2 0C471.3 0 428.7 0 385.8 0C343 0 300 0 257.2 0C214.3 0 171.7 0 128.8 0C86 0 43 0 21.5 0L0 0Z" fill="#182024"></path><path d="M0 142L21.5 141.2C43 140.3 86 138.7 128.8 144.3C171.7 150 214.3 163 257.2 166.8C300 170.7 343 165.3 385.8 162.3C428.7 159.3 471.3 158.7 514.2 151.8C557 145 600 132 642.8 136.2C685.7 140.3 728.3 161.7 771.2 170.5C814 179.3 857 175.7 878.5 173.8L900 172L900 0L878.5 0C857 0 814 0 771.2 0C728.3 0 685.7 0 642.8 0C600 0 557 0 514.2 0C471.3 0 428.7 0 385.8 0C343 0 300 0 257.2 0C214.3 0 171.7 0 128.8 0C86 0 43 0 21.5 0L0 0Z" fill="#23333b"></path><path d="M0 113L21.5 119.5C43 126 86 139 128.8 143.3C171.7 147.7 214.3 143.3 257.2 134.8C300 126.3 343 113.7 385.8 107C428.7 100.3 471.3 99.7 514.2 98.7C557 97.7 600 96.3 642.8 104.3C685.7 112.3 728.3 129.7 771.2 134C814 138.3 857 129.7 878.5 125.3L900 121L900 0L878.5 0C857 0 814 0 771.2 0C728.3 0 685.7 0 642.8 0C600 0 557 0 514.2 0C471.3 0 428.7 0 385.8 0C343 0 300 0 257.2 0C214.3 0 171.7 0 128.8 0C86 0 43 0 21.5 0L0 0Z" fill="#2e4753"></path><path d="M0 117L21.5 109.8C43 102.7 86 88.3 128.8 80C171.7 71.7 214.3 69.3 257.2 72.5C300 75.7 343 84.3 385.8 84.8C428.7 85.3 471.3 77.7 514.2 71.5C557 65.3 600 60.7 642.8 67.3C685.7 74 728.3 92 771.2 97.7C814 103.3 857 96.7 878.5 93.3L900 90L900 0L878.5 0C857 0 814 0 771.2 0C728.3 0 685.7 0 642.8 0C600 0 557 0 514.2 0C471.3 0 428.7 0 385.8 0C343 0 300 0 257.2 0C214.3 0 171.7 0 128.8 0C86 0 43 0 21.5 0L0 0Z" fill="#3a5c6c"></path><path d="M0 66L21.5 67C43 68 86 70 128.8 66.3C171.7 62.7 214.3 53.3 257.2 46.7C300 40 343 36 385.8 37.8C428.7 39.7 471.3 47.3 514.2 47.5C557 47.7 600 40.3 642.8 41.8C685.7 43.3 728.3 53.7 771.2 56.5C814 59.3 857 54.7 878.5 52.3L900 50L900 0L878.5 0C857 0 814 0 771.2 0C728.3 0 685.7 0 642.8 0C600 0 557 0 514.2 0C471.3 0 428.7 0 385.8 0C343 0 300 0 257.2 0C214.3 0 171.7 0 128.8 0C86 0 43 0 21.5 0L0 0Z" fill="#467287"></path></svg>