<svg width="900" height="194" viewBox="0 0 900 194" fill="none" xmlns="http://www.w3.org/2000/svg">
<g clip-path="url(#clip0_96_93)">
<path d="M0 148L129 137L257 192L386 147L514 194L643 119L771 138L900 179V0H771H643H514H386H257H129H0V148Z" fill="#FCAF3C"/>
<path d="M0 140L129 94L257 138L386 108L514 126L643 115L771 130L900 142V0H771H643H514H386H257H129H0V140Z" fill="#FBC555"/>
<path d="M0 73L129 69L257 125L386 115L514 77L643 122L771 86L900 105V0H771H643H514H386H257H129H0V73Z" fill="#FBD971"/>
<path d="M0 46L129 70L257 58L386 44L514 74L643 88L771 52L900 50V0H771H643H514H386H257H129H0V46Z" fill="#FCED8E"/>
<path d="M0 37L129 58L257 22L386 23L514 25L643 55L771 43L900 37V0H771H643H514H386H257H129H0V37Z" fill="#FFFFAD"/>
</g>
<defs>
<clipPath id="clip0_96_93">
<rect width="900" height="194" fill="white"/>
</clipPath>
</defs>
</svg>
