<svg width="591" height="583" viewBox="0 0 591 583" fill="none" xmlns="http://www.w3.org/2000/svg">
<g filter="url(#filter0_d_22_585)">
<rect x="31" y="17" width="536" height="536" fill="white"/>
<path d="M32.2902 3.39062C32.2902 63.1175 32.9266 87.1203 32.9266 150.639M32.9266 150.639C32.9266 214.158 32.8282 329.929 32.2902 407.738C31.7522 485.547 31.3347 561.284 31.3347 561.284C31.3347 572.274 30.1579 559.305 30.2437 553.457C30.351 546.147 31.3806 338.177 31.3806 320.022C31.3806 301.866 32.2902 209.446 32.9266 150.639Z" stroke="black" stroke-width="6.28125" stroke-miterlimit="10" stroke-linecap="round" stroke-linejoin="round"/>
<path d="M477.799 552.718C565.155 552.718 552.955 552.718 581.656 552.718C581.163 553.004 576.712 554.098 574.876 554.319C572.58 554.596 512.354 554.445 499.501 554.445C455.501 554.445 256.735 553.412 243.726 553.412M477.799 552.718C477.799 552.718 267.105 554.445 233.502 554.445C199.898 554.445 207.846 554.492 136.905 554.445C83.8679 554.41 20.4478 554.445 16.1801 554.445C11.9123 554.445 13.4871 552.373 13.4871 552.373C43.3184 553.412 95.2359 553.412 163.422 553.412C186.918 553.412 214.401 553.412 243.726 553.412M477.799 552.718C413.938 552.718 323.43 553.412 243.726 553.412" stroke="black" stroke-width="6.28125" stroke-miterlimit="10" stroke-linecap="round" stroke-linejoin="round"/>
<path d="M566.421 286.75C566.422 356.257 567.838 399.989 567.838 445.435C567.838 490.882 567.115 567.873 567.115 567.873C567.115 567.873 565.448 571.117 565.448 564.777C565.448 558.437 566.538 513.366 566.421 448.591C566.304 383.817 566.31 315.942 566.421 286.75ZM566.421 286.75C566.421 253.985 565.664 187.055 565.709 149.811C565.759 108.047 565.709 47.9049 565.709 7.57812" stroke="black" stroke-width="6.28125" stroke-miterlimit="10" stroke-linecap="round" stroke-linejoin="round"/>
<path d="M24.7188 17.9025C55.308 17.9025 81.9965 17.9025 97.7323 17.9025M97.7323 17.9025C113.468 17.9025 183.335 18.2077 212.918 18.2077M97.7323 17.9025C97.7323 17.9025 131.856 16.9524 151.863 16.9524C171.87 16.9524 212.918 18.2077 212.918 18.2077M586.891 18.2077C555.582 18.2077 570.058 17.9025 538.961 17.9025C521.236 17.9025 499.551 18.4111 468.465 18.2077M296.188 16.9524C317.702 16.9818 430.148 17.9569 468.465 18.2077M296.188 16.9524C273.939 16.922 242.501 18.2077 212.918 18.2077M296.188 16.9524C296.188 16.9524 350.133 16.9524 380.346 16.9524M468.465 18.2077C468.465 18.2077 410.558 16.9524 380.346 16.9524M212.918 18.2077C231.05 18.2077 273.09 18.2077 296.188 18.2077C319.287 18.2077 361.918 17.3709 380.346 16.9524" stroke="black" stroke-width="6.28125" stroke-miterlimit="10" stroke-linecap="round" stroke-linejoin="round"/>
<rect x="68.8015" y="64.2234" width="459.35" height="288.709" fill="#E4C0C0" fill-opacity="0.06" stroke="black" stroke-width="4.41553"/>
<path d="M87.2646 422.504C85.3206 422.504 83.6046 422.156 82.1166 421.46C80.6286 420.764 79.4646 419.768 78.6246 418.472C77.7846 417.176 77.3646 415.616 77.3646 413.792V412.784H82.0446V413.792C82.0446 415.304 82.5126 416.444 83.4486 417.212C84.3846 417.956 85.6566 418.328 87.2646 418.328C88.8966 418.328 90.1086 418.004 90.9006 417.356C91.7166 416.708 92.1246 415.88 92.1246 414.872C92.1246 414.176 91.9206 413.612 91.5126 413.18C91.1286 412.748 90.5526 412.4 89.7846 412.136C89.0406 411.848 88.1286 411.584 87.0486 411.344L86.2206 411.164C84.4926 410.78 83.0046 410.3 81.7566 409.724C80.5326 409.124 79.5846 408.344 78.9126 407.384C78.2646 406.424 77.9406 405.176 77.9406 403.64C77.9406 402.104 78.3006 400.796 79.0206 399.716C79.7646 398.612 80.7966 397.772 82.1166 397.196C83.4606 396.596 85.0326 396.296 86.8326 396.296C88.6326 396.296 90.2286 396.608 91.6206 397.232C93.0366 397.832 94.1406 398.744 94.9326 399.968C95.7486 401.168 96.1566 402.68 96.1566 404.504V405.584H91.4766V404.504C91.4766 403.544 91.2846 402.776 90.9006 402.2C90.5406 401.6 90.0126 401.168 89.3166 400.904C88.6206 400.616 87.7926 400.472 86.8326 400.472C85.3926 400.472 84.3246 400.748 83.6286 401.3C82.9566 401.828 82.6206 402.56 82.6206 403.496C82.6206 404.12 82.7766 404.648 83.0886 405.08C83.4246 405.512 83.9166 405.872 84.5646 406.16C85.2126 406.448 86.0406 406.7 87.0486 406.916L87.8766 407.096C89.6766 407.48 91.2366 407.972 92.5566 408.572C93.9006 409.172 94.9446 409.964 95.6886 410.948C96.4326 411.932 96.8046 413.192 96.8046 414.728C96.8046 416.264 96.4086 417.62 95.6166 418.796C94.8486 419.948 93.7446 420.86 92.3046 421.532C90.8886 422.18 89.2086 422.504 87.2646 422.504ZM108.989 422.504C107.213 422.504 105.617 422.144 104.201 421.424C102.785 420.704 101.669 419.66 100.853 418.292C100.037 416.924 99.6287 415.28 99.6287 413.36V412.784C99.6287 410.864 100.037 409.22 100.853 407.852C101.669 406.484 102.785 405.44 104.201 404.72C105.617 404 107.213 403.64 108.989 403.64C110.765 403.64 112.361 404 113.777 404.72C115.193 405.44 116.309 406.484 117.125 407.852C117.941 409.22 118.349 410.864 118.349 412.784V413.36C118.349 415.28 117.941 416.924 117.125 418.292C116.309 419.66 115.193 420.704 113.777 421.424C112.361 422.144 110.765 422.504 108.989 422.504ZM108.989 418.472C110.381 418.472 111.533 418.028 112.445 417.14C113.357 416.228 113.813 414.932 113.813 413.252V412.892C113.813 411.212 113.357 409.928 112.445 409.04C111.557 408.128 110.405 407.672 108.989 407.672C107.597 407.672 106.445 408.128 105.533 409.04C104.621 409.928 104.165 411.212 104.165 412.892V413.252C104.165 414.932 104.621 416.228 105.533 417.14C106.445 418.028 107.597 418.472 108.989 418.472ZM130.672 422.504C128.896 422.504 127.324 422.132 125.956 421.388C124.612 420.62 123.556 419.552 122.788 418.184C122.044 416.792 121.672 415.16 121.672 413.288V412.856C121.672 410.984 122.044 409.364 122.788 407.996C123.532 406.604 124.576 405.536 125.92 404.792C127.264 404.024 128.824 403.64 130.6 403.64C132.352 403.64 133.876 404.036 135.172 404.828C136.468 405.596 137.476 406.676 138.196 408.068C138.916 409.436 139.276 411.032 139.276 412.856V414.404H126.28C126.328 415.628 126.784 416.624 127.648 417.392C128.512 418.16 129.568 418.544 130.816 418.544C132.088 418.544 133.024 418.268 133.624 417.716C134.224 417.164 134.68 416.552 134.992 415.88L138.7 417.824C138.364 418.448 137.872 419.132 137.224 419.876C136.6 420.596 135.76 421.22 134.704 421.748C133.648 422.252 132.304 422.504 130.672 422.504ZM126.316 411.02H134.668C134.572 409.988 134.152 409.16 133.408 408.536C132.688 407.912 131.74 407.6 130.564 407.6C129.34 407.6 128.368 407.912 127.648 408.536C126.928 409.16 126.484 409.988 126.316 411.02ZM143.313 422V404.144H147.777V406.088H148.425C148.737 405.488 149.253 404.972 149.973 404.54C150.693 404.084 151.641 403.856 152.817 403.856C154.089 403.856 155.109 404.108 155.877 404.612C156.645 405.092 157.233 405.728 157.641 406.52H158.289C158.697 405.752 159.273 405.116 160.017 404.612C160.761 404.108 161.817 403.856 163.185 403.856C164.289 403.856 165.285 404.096 166.173 404.576C167.085 405.032 167.805 405.74 168.333 406.7C168.885 407.636 169.161 408.824 169.161 410.264V422H164.625V410.588C164.625 409.604 164.373 408.872 163.869 408.392C163.365 407.888 162.657 407.636 161.745 407.636C160.713 407.636 159.909 407.972 159.333 408.644C158.781 409.292 158.505 410.228 158.505 411.452V422H153.969V410.588C153.969 409.604 153.717 408.872 153.213 408.392C152.709 407.888 152.001 407.636 151.089 407.636C150.057 407.636 149.253 407.972 148.677 408.644C148.125 409.292 147.849 410.228 147.849 411.452V422H143.313ZM180.387 422C179.211 422 178.251 421.64 177.507 420.92C176.787 420.176 176.427 419.192 176.427 417.968V407.888H171.963V404.144H176.427V398.6H180.963V404.144H185.859V407.888H180.963V417.176C180.963 417.896 181.299 418.256 181.971 418.256H185.427V422H180.387ZM189.965 422V396.8H194.501V406.34H195.149C195.341 405.956 195.641 405.572 196.049 405.188C196.457 404.804 196.997 404.492 197.669 404.252C198.365 403.988 199.241 403.856 200.297 403.856C201.689 403.856 202.901 404.18 203.933 404.828C204.989 405.452 205.805 406.328 206.381 407.456C206.957 408.56 207.245 409.856 207.245 411.344V422H202.709V411.704C202.709 410.36 202.373 409.352 201.701 408.68C201.053 408.008 200.117 407.672 198.893 407.672C197.501 407.672 196.421 408.14 195.653 409.076C194.885 409.988 194.501 411.272 194.501 412.928V422H189.965ZM212.149 422V404.144H216.685V422H212.149ZM214.417 402.056C213.601 402.056 212.905 401.792 212.329 401.264C211.777 400.736 211.501 400.04 211.501 399.176C211.501 398.312 211.777 397.616 212.329 397.088C212.905 396.56 213.601 396.296 214.417 396.296C215.257 396.296 215.953 396.56 216.505 397.088C217.057 397.616 217.333 398.312 217.333 399.176C217.333 400.04 217.057 400.736 216.505 401.264C215.953 401.792 215.257 402.056 214.417 402.056ZM221.711 422V404.144H226.175V406.484H226.823C227.111 405.86 227.651 405.272 228.443 404.72C229.235 404.144 230.435 403.856 232.043 403.856C233.435 403.856 234.647 404.18 235.679 404.828C236.735 405.452 237.551 406.328 238.127 407.456C238.703 408.56 238.991 409.856 238.991 411.344V422H234.455V411.704C234.455 410.36 234.119 409.352 233.447 408.68C232.799 408.008 231.863 407.672 230.639 407.672C229.247 407.672 228.167 408.14 227.399 409.076C226.631 409.988 226.247 411.272 226.247 412.928V422H221.711ZM243.031 413.144V412.568C243.031 410.696 243.403 409.1 244.147 407.78C244.891 406.436 245.875 405.416 247.099 404.72C248.347 404 249.703 403.64 251.167 403.64C252.799 403.64 254.035 403.928 254.875 404.504C255.715 405.08 256.327 405.68 256.711 406.304H257.359V404.144H261.823V425.168C261.823 426.392 261.463 427.364 260.743 428.084C260.023 428.828 259.063 429.2 257.863 429.2H245.911V425.24H256.279C256.951 425.24 257.287 424.88 257.287 424.16V419.516H256.639C256.399 419.9 256.063 420.296 255.631 420.704C255.199 421.088 254.623 421.412 253.903 421.676C253.183 421.94 252.271 422.072 251.167 422.072C249.703 422.072 248.347 421.724 247.099 421.028C245.875 420.308 244.891 419.288 244.147 417.968C243.403 416.624 243.031 415.016 243.031 413.144ZM252.463 418.112C253.855 418.112 255.019 417.668 255.955 416.78C256.891 415.892 257.359 414.644 257.359 413.036V412.676C257.359 411.044 256.891 409.796 255.955 408.932C255.043 408.044 253.879 407.6 252.463 407.6C251.071 407.6 249.907 408.044 248.971 408.932C248.035 409.796 247.567 411.044 247.567 412.676V413.036C247.567 414.644 248.035 415.892 248.971 416.78C249.907 417.668 251.071 418.112 252.463 418.112ZM282.761 422V400.184H282.113L278.729 408.176H273.905L279.053 396.8H287.369V422H282.761Z" fill="black"/>
<path d="M70.192 473.8V471.64H76.792C77.24 471.64 77.464 471.4 77.464 470.92V467.272H77.08C76.936 467.592 76.712 467.904 76.408 468.208C76.12 468.496 75.728 468.736 75.232 468.928C74.736 469.12 74.112 469.216 73.36 469.216C72.464 469.216 71.664 469.016 70.96 468.616C70.256 468.216 69.704 467.648 69.304 466.912C68.904 466.176 68.704 465.304 68.704 464.296V457.168H71.176V464.104C71.176 465.128 71.432 465.888 71.944 466.384C72.456 466.864 73.168 467.104 74.08 467.104C75.088 467.104 75.896 466.768 76.504 466.096C77.128 465.424 77.44 464.448 77.44 463.168V457.168H79.912V471.424C79.912 472.144 79.696 472.72 79.264 473.152C78.848 473.584 78.272 473.8 77.536 473.8H70.192ZM89.1102 469.336C87.9262 469.336 86.8702 469.096 85.9422 468.616C85.0302 468.12 84.3102 467.416 83.7822 466.504C83.2542 465.592 82.9902 464.512 82.9902 463.264V462.904C82.9902 461.656 83.2542 460.584 83.7822 459.688C84.3102 458.776 85.0302 458.072 85.9422 457.576C86.8702 457.08 87.9262 456.832 89.1102 456.832C90.2942 456.832 91.3502 457.08 92.2782 457.576C93.2062 458.072 93.9342 458.776 94.4622 459.688C94.9902 460.584 95.2542 461.656 95.2542 462.904V463.264C95.2542 464.512 94.9902 465.592 94.4622 466.504C93.9342 467.416 93.2062 468.12 92.2782 468.616C91.3502 469.096 90.2942 469.336 89.1102 469.336ZM89.1102 467.128C90.1982 467.128 91.0782 466.784 91.7502 466.096C92.4382 465.392 92.7822 464.424 92.7822 463.192V462.976C92.7822 461.744 92.4462 460.784 91.7742 460.096C91.1022 459.392 90.2142 459.04 89.1102 459.04C88.0382 459.04 87.1582 459.392 86.4702 460.096C85.7982 460.784 85.4622 461.744 85.4622 462.976V463.192C85.4622 464.424 85.7982 465.392 86.4702 466.096C87.1582 466.784 88.0382 467.128 89.1102 467.128ZM103.876 469.336C102.692 469.336 101.636 469.096 100.708 468.616C99.7958 468.12 99.0758 467.416 98.5478 466.504C98.0198 465.592 97.7558 464.512 97.7558 463.264V462.904C97.7558 461.656 98.0198 460.584 98.5478 459.688C99.0758 458.776 99.7958 458.072 100.708 457.576C101.636 457.08 102.692 456.832 103.876 456.832C105.06 456.832 106.116 457.08 107.044 457.576C107.972 458.072 108.7 458.776 109.228 459.688C109.756 460.584 110.02 461.656 110.02 462.904V463.264C110.02 464.512 109.756 465.592 109.228 466.504C108.7 467.416 107.972 468.12 107.044 468.616C106.116 469.096 105.06 469.336 103.876 469.336ZM103.876 467.128C104.964 467.128 105.844 466.784 106.516 466.096C107.204 465.392 107.548 464.424 107.548 463.192V462.976C107.548 461.744 107.212 460.784 106.54 460.096C105.868 459.392 104.98 459.04 103.876 459.04C102.804 459.04 101.924 459.392 101.236 460.096C100.564 460.784 100.228 461.744 100.228 462.976V463.192C100.228 464.424 100.564 465.392 101.236 466.096C101.924 466.784 102.804 467.128 103.876 467.128ZM119.337 469.336C117.273 469.336 115.633 468.76 114.417 467.608C113.201 466.44 112.593 464.76 112.593 462.568V458.632C112.593 456.44 113.201 454.768 114.417 453.616C115.633 452.448 117.273 451.864 119.337 451.864C121.401 451.864 123.041 452.448 124.257 453.616C125.489 454.768 126.105 456.44 126.105 458.632V462.568C126.105 464.76 125.489 466.44 124.257 467.608C123.041 468.76 121.401 469.336 119.337 469.336ZM119.337 467.008C120.665 467.008 121.689 466.624 122.409 465.856C123.129 465.072 123.489 464.008 123.489 462.664V458.536C123.489 457.192 123.129 456.136 122.409 455.368C121.689 454.584 120.665 454.192 119.337 454.192C118.041 454.192 117.025 454.584 116.289 455.368C115.553 456.136 115.185 457.192 115.185 458.536V462.664C115.185 464.008 115.553 465.072 116.289 465.856C117.025 466.624 118.041 467.008 119.337 467.008ZM135.486 469.336C133.422 469.336 131.782 468.76 130.566 467.608C129.35 466.44 128.742 464.76 128.742 462.568V458.632C128.742 456.44 129.35 454.768 130.566 453.616C131.782 452.448 133.422 451.864 135.486 451.864C137.55 451.864 139.19 452.448 140.406 453.616C141.638 454.768 142.254 456.44 142.254 458.632V462.568C142.254 464.76 141.638 466.44 140.406 467.608C139.19 468.76 137.55 469.336 135.486 469.336ZM135.486 467.008C136.814 467.008 137.838 466.624 138.558 465.856C139.278 465.072 139.638 464.008 139.638 462.664V458.536C139.638 457.192 139.278 456.136 138.558 455.368C137.838 454.584 136.814 454.192 135.486 454.192C134.19 454.192 133.174 454.584 132.438 455.368C131.702 456.136 131.334 457.192 131.334 458.536V462.664C131.334 464.008 131.702 465.072 132.438 465.856C133.174 466.624 134.19 467.008 135.486 467.008ZM150.938 469.336C149.754 469.336 148.698 469.096 147.77 468.616C146.858 468.12 146.138 467.416 145.61 466.504C145.082 465.592 144.818 464.512 144.818 463.264V462.904C144.818 461.656 145.082 460.584 145.61 459.688C146.138 458.776 146.858 458.072 147.77 457.576C148.698 457.08 149.754 456.832 150.938 456.832C152.122 456.832 153.178 457.08 154.106 457.576C155.034 458.072 155.762 458.776 156.29 459.688C156.818 460.584 157.082 461.656 157.082 462.904V463.264C157.082 464.512 156.818 465.592 156.29 466.504C155.762 467.416 155.034 468.12 154.106 468.616C153.178 469.096 152.122 469.336 150.938 469.336ZM150.938 467.128C152.026 467.128 152.906 466.784 153.578 466.096C154.266 465.392 154.61 464.424 154.61 463.192V462.976C154.61 461.744 154.274 460.784 153.602 460.096C152.93 459.392 152.042 459.04 150.938 459.04C149.866 459.04 148.986 459.392 148.298 460.096C147.626 460.784 147.29 461.744 147.29 462.976V463.192C147.29 464.424 147.626 465.392 148.298 466.096C148.986 466.784 149.866 467.128 150.938 467.128Z" fill="black"/>
<g filter="url(#filter1_d_22_585)">
<rect width="38" height="38" transform="translate(476 387)" fill="black"/>
<path d="M501.375 399.31L502.049 410.605M501.375 399.31L490.081 399.984M501.375 399.31L488.984 413.273" stroke="#FDFDFD" stroke-width="2.40017" stroke-linecap="round" stroke-linejoin="round"/>
</g>
</g>
<defs>
<filter id="filter0_d_22_585" x="0.640137" y="0.25" width="589.391" height="582.063" filterUnits="userSpaceOnUse" color-interpolation-filters="sRGB">
<feFlood flood-opacity="0" result="BackgroundImageFix"/>
<feColorMatrix in="SourceAlpha" type="matrix" values="0 0 0 0 0 0 0 0 0 0 0 0 0 0 0 0 0 0 127 0" result="hardAlpha"/>
<feOffset dx="-9.42188" dy="10.4688"/>
<feComposite in2="hardAlpha" operator="out"/>
<feColorMatrix type="matrix" values="0 0 0 0 0 0 0 0 0 0 0 0 0 0 0 0 0 0 0.44 0"/>
<feBlend mode="normal" in2="BackgroundImageFix" result="effect1_dropShadow_22_585"/>
<feBlend mode="normal" in="SourceGraphic" in2="effect1_dropShadow_22_585" result="shape"/>
</filter>
<filter id="filter1_d_22_585" x="476" y="387" width="42" height="42" filterUnits="userSpaceOnUse" color-interpolation-filters="sRGB">
<feFlood flood-opacity="0" result="BackgroundImageFix"/>
<feColorMatrix in="SourceAlpha" type="matrix" values="0 0 0 0 0 0 0 0 0 0 0 0 0 0 0 0 0 0 127 0" result="hardAlpha"/>
<feOffset dx="4" dy="4"/>
<feComposite in2="hardAlpha" operator="out"/>
<feColorMatrix type="matrix" values="0 0 0 0 0.556863 0 0 0 0 0.560784 0 0 0 0 0.529412 0 0 0 1 0"/>
<feBlend mode="normal" in2="BackgroundImageFix" result="effect1_dropShadow_22_585"/>
<feBlend mode="normal" in="SourceGraphic" in2="effect1_dropShadow_22_585" result="shape"/>
</filter>
</defs>
</svg>
