<svg xmlns="http://www.w3.org/2000/svg" width="77" height="90" viewBox="0 0 77 90" fill="none">
<path d="M60.3118 14.3568C59.724 13.4567 54.4699 12.7004 48.4489 12.524C39.0845 12.2791 37.5031 12.6402 36.9484 14.5431C35.3619 19.3123 37.5626 20.3837 48.5083 20.2674C60.3778 19.9627 63.3679 18.5829 60.3118 14.3568Z" fill="black"/>
<path d="M42.8299 43.102C31.2923 35.5064 27.7527 34.3811 28.0058 38.6403C28.1086 40.3705 32.0489 43.7427 39.8347 48.8899C46.3672 53.1766 52.0457 56.579 52.7112 56.5395C53.2436 56.5078 53.6889 55.0121 53.5861 53.2818C53.4437 50.886 50.7567 48.3744 42.8299 43.102Z" fill="black"/>
<path d="M28.5192 66.4306C22.461 56.6395 15.2761 48.1174 13.8674 49.1361C11.4334 50.8835 12.8765 54.9384 19.106 63.1166C22.452 67.7262 26.0801 72.5862 27.1067 74.128C28.1333 75.6698 29.4103 76.9296 30.0758 76.89C32.8708 76.7239 32.2105 72.3554 28.5192 66.4306Z" fill="black"/>
</svg>